<?xml version="1.0" encoding="utf-8"?>
<!-- Generator: Adobe Illustrator 16.0.0, SVG Export Plug-In . SVG Version: 6.00 Build 0)  -->
<!DOCTYPE svg PUBLIC "-//W3C//DTD SVG 1.1//EN" "http://www.w3.org/Graphics/SVG/1.1/DTD/svg11.dtd">
<svg version="1.1" id="icon-bag" xmlns="http://www.w3.org/2000/svg" xmlns:xlink="http://www.w3.org/1999/xlink" x="0px" y="0px"
	 width="563.296px" height="577.842px" viewBox="15.799 131.58 563.296 577.842"
	 enable-background="new 15.799 131.58 563.296 577.842" xml:space="preserve">
<title>My Bag</title>
<path d="M455.418,279.804c-2.141-34.419-15.591-67.401-38.295-93.574c-30.082-34.73-73.596-54.649-119.384-54.649
	c-41.715,0-81.082,16.176-110.848,45.549c-27.969,27.6-44.41,63.819-46.761,102.675H15.799l27.259,422.511l0.527,7.017l0.015,0.091
	h507.855l27.196-421.544l0.383-7.154l0.061-0.918H455.418V279.804z M182.326,279.804c5.02-59.188,55.303-106.135,115.493-106.135
	c33.565,0,65.48,14.596,87.558,40.04c16.07,18.558,25.816,41.783,27.865,66.095H182.326z M82.963,667.33L60.676,321.894h79.15
	v67.607l0.08,7.5v0.09h42v-75.197h231.75v67.607l0.078,7.5v0.09h42v-75.197h78.55l-22.286,345.438L82.963,667.33L82.963,667.33z"/>
</svg>
